<mxfile host="app.diagrams.net" modified="2023-08-04T11:20:25.657Z" agent="Mozilla/5.0 (X11; Linux x86_64; rv:109.0) Gecko/20100101 Firefox/115.0" etag="0LCPSVzjqOBw2zrpmt_A" version="21.6.6" type="github">
  <diagram name="Seite-1" id="82ap8rPAqJK_SnunAFGu">
    <mxGraphModel dx="794" dy="1086" grid="1" gridSize="10" guides="1" tooltips="1" connect="1" arrows="1" fold="1" page="1" pageScale="1" pageWidth="1200" pageHeight="1600" math="0" shadow="0">
      <root>
        <mxCell id="0" />
        <mxCell id="1" parent="0" />
        <mxCell id="63rLZzDj2ByE98B5s76A-1" value="EnV5 Device" style="swimlane;fontStyle=0;childLayout=stackLayout;horizontal=1;startSize=30;horizontalStack=0;resizeParent=1;resizeParentMax=0;resizeLast=0;collapsible=1;marginBottom=0;whiteSpace=wrap;html=1;" vertex="1" parent="1">
          <mxGeometry x="30" y="290" width="140" height="120" as="geometry" />
        </mxCell>
        <mxCell id="63rLZzDj2ByE98B5s76A-2" value="GSensor" style="text;strokeColor=none;fillColor=none;align=left;verticalAlign=middle;spacingLeft=4;spacingRight=4;overflow=hidden;points=[[0,0.5],[1,0.5]];portConstraint=eastwest;rotatable=0;whiteSpace=wrap;html=1;" vertex="1" parent="63rLZzDj2ByE98B5s76A-1">
          <mxGeometry y="30" width="140" height="30" as="geometry" />
        </mxCell>
        <mxCell id="63rLZzDj2ByE98B5s76A-3" value="PowerSensor" style="text;strokeColor=none;fillColor=none;align=left;verticalAlign=middle;spacingLeft=4;spacingRight=4;overflow=hidden;points=[[0,0.5],[1,0.5]];portConstraint=eastwest;rotatable=0;whiteSpace=wrap;html=1;" vertex="1" parent="63rLZzDj2ByE98B5s76A-1">
          <mxGeometry y="60" width="140" height="30" as="geometry" />
        </mxCell>
        <mxCell id="63rLZzDj2ByE98B5s76A-4" value="TempSensor" style="text;strokeColor=none;fillColor=none;align=left;verticalAlign=middle;spacingLeft=4;spacingRight=4;overflow=hidden;points=[[0,0.5],[1,0.5]];portConstraint=eastwest;rotatable=0;whiteSpace=wrap;html=1;" vertex="1" parent="63rLZzDj2ByE98B5s76A-1">
          <mxGeometry y="90" width="140" height="30" as="geometry" />
        </mxCell>
        <mxCell id="63rLZzDj2ByE98B5s76A-15" value="TwinData" style="swimlane;fontStyle=1;align=center;verticalAlign=top;childLayout=stackLayout;horizontal=1;startSize=26;horizontalStack=0;resizeParent=1;resizeParentMax=0;resizeLast=0;collapsible=1;marginBottom=0;whiteSpace=wrap;html=1;" vertex="1" collapsed="1" parent="1">
          <mxGeometry x="780" y="290" width="90" height="30" as="geometry">
            <mxRectangle x="460" y="380" width="250" height="290" as="alternateBounds" />
          </mxGeometry>
        </mxCell>
        <mxCell id="63rLZzDj2ByE98B5s76A-16" value="&lt;div&gt;ID : String&lt;/div&gt;&lt;div&gt;twinStub : TwinStub&lt;/div&gt;&lt;div&gt;name : String&lt;/div&gt;&lt;div&gt;active : boolean&lt;/div&gt;&lt;div&gt;sensors : String[]&lt;/div&gt;&lt;div&gt;requesterID : String&lt;/div&gt;&lt;div&gt;dataRequester : Hashmap&amp;lt;&amp;gt;&lt;/div&gt;&lt;div&gt;lifeTime : HashMap&amp;lt;&amp;gt;&lt;br&gt;&lt;/div&gt;" style="text;strokeColor=none;fillColor=none;align=left;verticalAlign=top;spacingLeft=4;spacingRight=4;overflow=hidden;rotatable=0;points=[[0,0.5],[1,0.5]];portConstraint=eastwest;whiteSpace=wrap;html=1;" vertex="1" parent="63rLZzDj2ByE98B5s76A-15">
          <mxGeometry y="26" width="250" height="134" as="geometry" />
        </mxCell>
        <mxCell id="63rLZzDj2ByE98B5s76A-17" value="" style="line;strokeWidth=1;fillColor=none;align=left;verticalAlign=middle;spacingTop=-1;spacingLeft=3;spacingRight=3;rotatable=0;labelPosition=right;points=[];portConstraint=eastwest;strokeColor=inherit;" vertex="1" parent="63rLZzDj2ByE98B5s76A-15">
          <mxGeometry y="160" width="250" height="8" as="geometry" />
        </mxCell>
        <mxCell id="63rLZzDj2ByE98B5s76A-18" value="&lt;div&gt;unsubIfInactive(String sensor) : void&lt;/div&gt;&lt;div&gt;setActive() : void&lt;/div&gt;&lt;div&gt;setInactive() : void&lt;/div&gt;&lt;div&gt;setName(String name) : void&lt;/div&gt;&lt;div&gt;getID() : String&lt;/div&gt;&lt;div&gt;getAvailableSensors() : List&amp;lt;String&amp;gt;&lt;/div&gt;&lt;div&gt;setAvailableSensors([]String sensors) : void&lt;/div&gt;&lt;div&gt;toString() : String&lt;br&gt;&lt;/div&gt;" style="text;strokeColor=none;fillColor=none;align=left;verticalAlign=top;spacingLeft=4;spacingRight=4;overflow=hidden;rotatable=0;points=[[0,0.5],[1,0.5]];portConstraint=eastwest;whiteSpace=wrap;html=1;" vertex="1" parent="63rLZzDj2ByE98B5s76A-15">
          <mxGeometry y="168" width="250" height="122" as="geometry" />
        </mxCell>
        <mxCell id="63rLZzDj2ByE98B5s76A-19" value="EnV5Controller" style="swimlane;fontStyle=1;align=center;verticalAlign=top;childLayout=stackLayout;horizontal=1;startSize=26;horizontalStack=0;resizeParent=1;resizeParentMax=0;resizeLast=0;collapsible=1;marginBottom=0;whiteSpace=wrap;html=1;" vertex="1" collapsed="1" parent="1">
          <mxGeometry x="190" y="160" width="130" height="30" as="geometry">
            <mxRectangle x="210" y="260" width="390" height="86" as="alternateBounds" />
          </mxGeometry>
        </mxCell>
        <mxCell id="63rLZzDj2ByE98B5s76A-20" value="- " style="text;strokeColor=none;fillColor=none;align=left;verticalAlign=top;spacingLeft=4;spacingRight=4;overflow=hidden;rotatable=0;points=[[0,0.5],[1,0.5]];portConstraint=eastwest;whiteSpace=wrap;html=1;" vertex="1" parent="63rLZzDj2ByE98B5s76A-19">
          <mxGeometry y="26" width="390" height="26" as="geometry" />
        </mxCell>
        <mxCell id="63rLZzDj2ByE98B5s76A-21" value="" style="line;strokeWidth=1;fillColor=none;align=left;verticalAlign=middle;spacingTop=-1;spacingLeft=3;spacingRight=3;rotatable=0;labelPosition=right;points=[];portConstraint=eastwest;strokeColor=inherit;" vertex="1" parent="63rLZzDj2ByE98B5s76A-19">
          <mxGeometry y="52" width="390" height="8" as="geometry" />
        </mxCell>
        <mxCell id="63rLZzDj2ByE98B5s76A-22" value="enV5LandingPage(Model model, @PathVariable String name) : String" style="text;strokeColor=none;fillColor=none;align=left;verticalAlign=top;spacingLeft=4;spacingRight=4;overflow=hidden;rotatable=0;points=[[0,0.5],[1,0.5]];portConstraint=eastwest;whiteSpace=wrap;html=1;" vertex="1" parent="63rLZzDj2ByE98B5s76A-19">
          <mxGeometry y="60" width="390" height="26" as="geometry" />
        </mxCell>
        <mxCell id="63rLZzDj2ByE98B5s76A-23" value="MonitorController" style="swimlane;fontStyle=1;align=center;verticalAlign=top;childLayout=stackLayout;horizontal=1;startSize=26;horizontalStack=0;resizeParent=1;resizeParentMax=0;resizeLast=0;collapsible=1;marginBottom=0;whiteSpace=wrap;html=1;" vertex="1" collapsed="1" parent="1">
          <mxGeometry x="530" y="160" width="140" height="30" as="geometry">
            <mxRectangle x="380" y="230" width="300" height="120" as="alternateBounds" />
          </mxGeometry>
        </mxCell>
        <mxCell id="63rLZzDj2ByE98B5s76A-24" value="&lt;div&gt;ANSI_GREEN : String&lt;/div&gt;&lt;div&gt;ANSI_RESET : String&lt;br&gt;&lt;/div&gt;" style="text;strokeColor=none;fillColor=none;align=left;verticalAlign=top;spacingLeft=4;spacingRight=4;overflow=hidden;rotatable=0;points=[[0,0.5],[1,0.5]];portConstraint=eastwest;whiteSpace=wrap;html=1;" vertex="1" parent="63rLZzDj2ByE98B5s76A-23">
          <mxGeometry y="26" width="300" height="34" as="geometry" />
        </mxCell>
        <mxCell id="63rLZzDj2ByE98B5s76A-25" value="" style="line;strokeWidth=1;fillColor=none;align=left;verticalAlign=middle;spacingTop=-1;spacingLeft=3;spacingRight=3;rotatable=0;labelPosition=right;points=[];portConstraint=eastwest;strokeColor=inherit;" vertex="1" parent="63rLZzDj2ByE98B5s76A-23">
          <mxGeometry y="60" width="300" height="8" as="geometry" />
        </mxCell>
        <mxCell id="63rLZzDj2ByE98B5s76A-26" value="&lt;div&gt;index(Model model) : String&lt;/div&gt;&lt;div&gt;handleFileUpload(file, twinID) : ResponsEntity&amp;lt;?&amp;gt;&lt;/div&gt;&lt;div&gt;handleChangeName(name, ID) : ResponseEntity&amp;lt;?&amp;gt;&lt;br&gt;&lt;/div&gt;" style="text;strokeColor=none;fillColor=none;align=left;verticalAlign=top;spacingLeft=4;spacingRight=4;overflow=hidden;rotatable=0;points=[[0,0.5],[1,0.5]];portConstraint=eastwest;whiteSpace=wrap;html=1;" vertex="1" parent="63rLZzDj2ByE98B5s76A-23">
          <mxGeometry y="68" width="300" height="52" as="geometry" />
        </mxCell>
        <mxCell id="63rLZzDj2ByE98B5s76A-27" value="MonitoringServiceApplication" style="swimlane;fontStyle=1;align=center;verticalAlign=top;childLayout=stackLayout;horizontal=1;startSize=26;horizontalStack=0;resizeParent=1;resizeParentMax=0;resizeLast=0;collapsible=1;marginBottom=0;whiteSpace=wrap;html=1;" vertex="1" collapsed="1" parent="1">
          <mxGeometry x="720" y="160" width="210" height="30" as="geometry">
            <mxRectangle x="400" y="307" width="430" height="250" as="alternateBounds" />
          </mxGeometry>
        </mxCell>
        <mxCell id="63rLZzDj2ByE98B5s76A-28" value="&lt;div&gt;MQTT_DOMAIN : String&lt;/div&gt;&lt;div&gt;TWIN_ID : String&lt;/div&gt;&lt;div&gt;BROKER_IP : String&lt;/div&gt;&lt;div&gt;BROKER_PORT : Int&lt;/div&gt;&lt;div&gt;monitor : MonitorTwin&lt;/div&gt;&lt;div&gt;IP_ADDRESS : String&lt;br&gt;&lt;/div&gt;" style="text;strokeColor=none;fillColor=none;align=left;verticalAlign=top;spacingLeft=4;spacingRight=4;overflow=hidden;rotatable=0;points=[[0,0.5],[1,0.5]];portConstraint=eastwest;whiteSpace=wrap;html=1;" vertex="1" parent="63rLZzDj2ByE98B5s76A-27">
          <mxGeometry y="26" width="430" height="104" as="geometry" />
        </mxCell>
        <mxCell id="63rLZzDj2ByE98B5s76A-29" value="" style="line;strokeWidth=1;fillColor=none;align=left;verticalAlign=middle;spacingTop=-1;spacingLeft=3;spacingRight=3;rotatable=0;labelPosition=right;points=[];portConstraint=eastwest;strokeColor=inherit;" vertex="1" parent="63rLZzDj2ByE98B5s76A-27">
          <mxGeometry y="130" width="430" height="8" as="geometry" />
        </mxCell>
        <mxCell id="63rLZzDj2ByE98B5s76A-30" value="&lt;div&gt;main() : void&lt;/div&gt;&lt;div&gt;parseArguments(String[] args) : Namespace&lt;/div&gt;&lt;div&gt;defineBrokerArgumentGroup(parser) : void&lt;/div&gt;&lt;div&gt;createMonitorTwin() : Monitortwin&lt;/div&gt;&lt;div&gt;getTwinList() : TwinList&lt;/div&gt;&lt;div&gt;getLatestMeasurement(dataRequester) : float&lt;/div&gt;&lt;div&gt;handleNewData(UpdatedValueStorage&amp;lt;Float&amp;gt; latestValue, String input) : void&lt;br&gt;&lt;/div&gt;" style="text;strokeColor=none;fillColor=none;align=left;verticalAlign=top;spacingLeft=4;spacingRight=4;overflow=hidden;rotatable=0;points=[[0,0.5],[1,0.5]];portConstraint=eastwest;whiteSpace=wrap;html=1;" vertex="1" parent="63rLZzDj2ByE98B5s76A-27">
          <mxGeometry y="138" width="430" height="112" as="geometry" />
        </mxCell>
        <mxCell id="63rLZzDj2ByE98B5s76A-31" value="MonitorTwin JavaTwin" style="swimlane;fontStyle=1;align=center;verticalAlign=top;childLayout=stackLayout;horizontal=1;startSize=26;horizontalStack=0;resizeParent=1;resizeParentMax=0;resizeLast=0;collapsible=1;marginBottom=0;whiteSpace=wrap;html=1;" vertex="1" collapsed="1" parent="1">
          <mxGeometry x="755" y="230" width="140" height="30" as="geometry">
            <mxRectangle x="430" y="390" width="250" height="120" as="alternateBounds" />
          </mxGeometry>
        </mxCell>
        <mxCell id="63rLZzDj2ByE98B5s76A-32" value="&lt;div&gt;statusMonitor : StatusMonitor&lt;/div&gt;&lt;div&gt;twins : TwinList&lt;br&gt;&lt;/div&gt;&lt;div&gt;&lt;br&gt;&lt;/div&gt;" style="text;strokeColor=none;fillColor=none;align=left;verticalAlign=top;spacingLeft=4;spacingRight=4;overflow=hidden;rotatable=0;points=[[0,0.5],[1,0.5]];portConstraint=eastwest;whiteSpace=wrap;html=1;" vertex="1" parent="63rLZzDj2ByE98B5s76A-31">
          <mxGeometry y="26" width="250" height="44" as="geometry" />
        </mxCell>
        <mxCell id="63rLZzDj2ByE98B5s76A-33" value="" style="line;strokeWidth=1;fillColor=none;align=left;verticalAlign=middle;spacingTop=-1;spacingLeft=3;spacingRight=3;rotatable=0;labelPosition=right;points=[];portConstraint=eastwest;strokeColor=inherit;" vertex="1" parent="63rLZzDj2ByE98B5s76A-31">
          <mxGeometry y="70" width="250" height="8" as="geometry" />
        </mxCell>
        <mxCell id="63rLZzDj2ByE98B5s76A-34" value="&lt;div&gt;executeOnBind() : void&lt;/div&gt;&lt;div&gt;getTwinList() : TwinList&lt;/div&gt;&lt;div&gt;&lt;br&gt;&lt;/div&gt;" style="text;strokeColor=none;fillColor=none;align=left;verticalAlign=top;spacingLeft=4;spacingRight=4;overflow=hidden;rotatable=0;points=[[0,0.5],[1,0.5]];portConstraint=eastwest;whiteSpace=wrap;html=1;" vertex="1" parent="63rLZzDj2ByE98B5s76A-31">
          <mxGeometry y="78" width="250" height="42" as="geometry" />
        </mxCell>
        <mxCell id="63rLZzDj2ByE98B5s76A-35" value="ServerInitializer" style="swimlane;fontStyle=1;align=center;verticalAlign=top;childLayout=stackLayout;horizontal=1;startSize=26;horizontalStack=0;resizeParent=1;resizeParentMax=0;resizeLast=0;collapsible=1;marginBottom=0;whiteSpace=wrap;html=1;" vertex="1" collapsed="1" parent="1">
          <mxGeometry x="350" y="160" width="130" height="30" as="geometry">
            <mxRectangle x="350" y="160" width="280" height="90" as="alternateBounds" />
          </mxGeometry>
        </mxCell>
        <mxCell id="63rLZzDj2ByE98B5s76A-36" value="- " style="text;strokeColor=none;fillColor=none;align=left;verticalAlign=top;spacingLeft=4;spacingRight=4;overflow=hidden;rotatable=0;points=[[0,0.5],[1,0.5]];portConstraint=eastwest;whiteSpace=wrap;html=1;" vertex="1" parent="63rLZzDj2ByE98B5s76A-35">
          <mxGeometry y="26" width="280" height="26" as="geometry" />
        </mxCell>
        <mxCell id="63rLZzDj2ByE98B5s76A-37" value="" style="line;strokeWidth=1;fillColor=none;align=left;verticalAlign=middle;spacingTop=-1;spacingLeft=3;spacingRight=3;rotatable=0;labelPosition=right;points=[];portConstraint=eastwest;strokeColor=inherit;" vertex="1" parent="63rLZzDj2ByE98B5s76A-35">
          <mxGeometry y="52" width="280" height="8" as="geometry" />
        </mxCell>
        <mxCell id="63rLZzDj2ByE98B5s76A-38" value="configure(application) : SpringAppliccationBuilder" style="text;strokeColor=none;fillColor=none;align=left;verticalAlign=top;spacingLeft=4;spacingRight=4;overflow=hidden;rotatable=0;points=[[0,0.5],[1,0.5]];portConstraint=eastwest;whiteSpace=wrap;html=1;" vertex="1" parent="63rLZzDj2ByE98B5s76A-35">
          <mxGeometry y="60" width="280" height="30" as="geometry" />
        </mxCell>
        <mxCell id="63rLZzDj2ByE98B5s76A-39" value="TwinList" style="swimlane;fontStyle=1;align=center;verticalAlign=top;childLayout=stackLayout;horizontal=1;startSize=26;horizontalStack=0;resizeParent=1;resizeParentMax=0;resizeLast=0;collapsible=1;marginBottom=0;whiteSpace=wrap;html=1;" vertex="1" collapsed="1" parent="1">
          <mxGeometry x="780" y="350" width="90" height="30" as="geometry">
            <mxRectangle x="410" y="550" width="380" height="168" as="alternateBounds" />
          </mxGeometry>
        </mxCell>
        <mxCell id="63rLZzDj2ByE98B5s76A-40" value="&lt;div&gt;twins : List&amp;lt;TwinData&amp;gt;&lt;/div&gt;&lt;div&gt;twinIdCounter : uint&lt;/div&gt;" style="text;strokeColor=none;fillColor=none;align=left;verticalAlign=top;spacingLeft=4;spacingRight=4;overflow=hidden;rotatable=0;points=[[0,0.5],[1,0.5]];portConstraint=eastwest;whiteSpace=wrap;html=1;" vertex="1" parent="63rLZzDj2ByE98B5s76A-39">
          <mxGeometry y="26" width="380" height="44" as="geometry" />
        </mxCell>
        <mxCell id="63rLZzDj2ByE98B5s76A-41" value="" style="line;strokeWidth=1;fillColor=none;align=left;verticalAlign=middle;spacingTop=-1;spacingLeft=3;spacingRight=3;rotatable=0;labelPosition=right;points=[];portConstraint=eastwest;strokeColor=inherit;" vertex="1" parent="63rLZzDj2ByE98B5s76A-39">
          <mxGeometry y="70" width="380" height="8" as="geometry" />
        </mxCell>
        <mxCell id="63rLZzDj2ByE98B5s76A-42" value="&lt;div&gt;changeTwinName (ID, newName) : void&lt;/div&gt;&lt;div&gt;getTwinData(ID) : TwinData&lt;/div&gt;&lt;div&gt;addOrUpdateTwin(ID, measurements, endpoint, requesterID) : void&lt;/div&gt;&lt;div&gt;getActiveTwins() : List&amp;lt;TwinData&amp;gt;&lt;/div&gt;&lt;div&gt;getTwins() : List&amp;lt;TwinData&amp;gt;&lt;br&gt;&lt;/div&gt;" style="text;strokeColor=none;fillColor=none;align=left;verticalAlign=top;spacingLeft=4;spacingRight=4;overflow=hidden;rotatable=0;points=[[0,0.5],[1,0.5]];portConstraint=eastwest;whiteSpace=wrap;html=1;" vertex="1" parent="63rLZzDj2ByE98B5s76A-39">
          <mxGeometry y="78" width="380" height="90" as="geometry" />
        </mxCell>
      </root>
    </mxGraphModel>
  </diagram>
</mxfile>
